<?xml version="1.0" encoding="UTF-8" standalone="no"?>
<!-- Created with Inkscape (http://www.inkscape.org/) -->
<svg
   xmlns:dc="http://purl.org/dc/elements/1.1/"
   xmlns:cc="http://creativecommons.org/ns#"
   xmlns:rdf="http://www.w3.org/1999/02/22-rdf-syntax-ns#"
   xmlns:svg="http://www.w3.org/2000/svg"
   xmlns="http://www.w3.org/2000/svg"
   xmlns:sodipodi="http://sodipodi.sourceforge.net/DTD/sodipodi-0.dtd"
   xmlns:inkscape="http://www.inkscape.org/namespaces/inkscape"
   width="744.09448819"
   height="1052.3622047"
   id="svg2637"
   sodipodi:version="0.32"
   inkscape:version="0.46"
   sodipodi:docname="3in.svg"
   inkscape:output_extension="org.inkscape.output.svg.inkscape">
  <defs
     id="defs2639">
    <inkscape:perspective
       sodipodi:type="inkscape:persp3d"
       inkscape:vp_x="0 : 526.18109 : 1"
       inkscape:vp_y="0 : 1000 : 0"
       inkscape:vp_z="744.09448 : 526.18109 : 1"
       inkscape:persp3d-origin="372.04724 : 350.78739 : 1"
       id="perspective2645" />
    <inkscape:perspective
       id="perspective187"
       inkscape:persp3d-origin="185.66451 : 101.37233 : 1"
       inkscape:vp_z="371.32901 : 152.0585 : 1"
       inkscape:vp_y="0 : 1000 : 0"
       inkscape:vp_x="0 : 152.0585 : 1"
       sodipodi:type="inkscape:persp3d" />
    <inkscape:perspective
       id="perspective4004"
       inkscape:persp3d-origin="185.66451 : 101.37233 : 1"
       inkscape:vp_z="371.32901 : 152.0585 : 1"
       inkscape:vp_y="0 : 1000 : 0"
       inkscape:vp_x="0 : 152.0585 : 1"
       sodipodi:type="inkscape:persp3d" />
    <inkscape:perspective
       id="perspective4510"
       inkscape:persp3d-origin="185.66451 : 101.37233 : 1"
       inkscape:vp_z="371.32901 : 152.0585 : 1"
       inkscape:vp_y="0 : 1000 : 0"
       inkscape:vp_x="0 : 152.0585 : 1"
       sodipodi:type="inkscape:persp3d" />
  </defs>
  <sodipodi:namedview
     id="base"
     pagecolor="#ffffff"
     bordercolor="#666666"
     borderopacity="1.0"
     gridtolerance="10000"
     guidetolerance="10"
     objecttolerance="10"
     inkscape:pageopacity="0.0"
     inkscape:pageshadow="2"
     inkscape:zoom="0.35"
     inkscape:cx="375"
     inkscape:cy="526.18109"
     inkscape:document-units="px"
     inkscape:current-layer="layer1"
     showgrid="false"
     inkscape:window-width="1024"
     inkscape:window-height="712"
     inkscape:window-x="0"
     inkscape:window-y="22" />
  <metadata
     id="metadata2642">
    <rdf:RDF>
      <cc:Work
         rdf:about="">
        <dc:format>image/svg+xml</dc:format>
        <dc:type
           rdf:resource="http://purl.org/dc/dcmitype/StillImage" />
      </cc:Work>
    </rdf:RDF>
  </metadata>
  <g
     inkscape:label="Layer 1"
     inkscape:groupmode="layer"
     id="layer1">
    <g
       id="g236"
       transform="translate(1.4560224,6.0183056)">
      <g
         id="tail">
        <path
           id="path3229"
           style="fill:#794522;stroke:#010101;stroke-width:4"
           d="M 139.722,220.167 C 93.054,175.966 62.902,226.923 32.278,209.499 C 6.445,189.332 25.778,158.832 40.362,146.124 C 68.033,122.013 31.764,131.783 28.901,132.589 C 20.288,135.012 -14.697,179.639 11.669,214.277 C 48.346,262.46 80.983,207.475 125.333,238.526 C 163.035,264.923 139,221.198 139.722,220.167 z" />
        <path
           id="path3334"
           style="fill:#010101;fill-opacity:0.3137"
           d="M 11.669,214.273 C 48.344,262.457 80.985,207.489 125.336,238.539 C 149.132,255.201 148.324,243.929 144.679,233.087 C 143.942,237.943 138.809,238.818 123.493,228.095 C 79.143,197.044 46.502,252.013 9.827,203.828 C 6.119,198.957 3.625,193.887 2.099,188.766 C 2.638,197.373 5.442,206.093 11.669,214.273 z" />
      </g>
      <g
         id="body">
        <path
           id="path2383"
           style="fill:#794522;stroke:#010101;stroke-width:4;stroke-linecap:round;stroke-linejoin:round"
           d="M 341.997,160.915 C 342.043,229.06 286.839,284.339 218.694,284.384 C 150.549,284.43 95.271,229.226 95.225,161.081 C 95.225,161.026 95.225,160.971 95.225,160.915 C 95.179,92.771 150.384,37.492 218.529,37.447 C 286.673,37.401 341.952,92.607 341.997,160.751 C 341.997,160.806 341.997,160.86 341.997,160.915 z" />
        <path
           id="path3339"
           style="fill:#010101;fill-opacity:0.3137"
           d="M 326.781,102.295 C 329.984,113.27 331.687,124.884 331.687,136.889 C 331.687,204.997 276.421,260.264 208.312,260.264 C 161.488,260.264 120.714,234.132 99.812,195.67 C 114.835,246.87 162.179,284.295 218.218,284.295 C 286.327,284.295 341.593,229.028 341.593,160.92 C 341.593,139.71 336.22,119.733 326.781,102.295 z" />
      </g>
      <g
         transform="translate(-83.27599,-45.733535)"
         id="g253">
        <path
           id="path255"
           style="fill:#a05b2c;stroke:#010101;stroke-width:4;stroke-linecap:round;stroke-linejoin:round"
           d="M 300.866,209.176 C 313.234,205.742 324.23,214.209 330.312,226.072 C 337.266,239.643 331.899,256.3 318.332,263.254 C 304.764,270.209 299.604,258.948 292.649,245.381 C 290.335,240.862 283.452,228.01 281.807,224.802 C 278.341,218.04 275.286,212.676 282.049,209.209 C 287.637,206.345 296.774,204.809 300.866,209.176 z" />
        <path
           id="path2510_6_"
           style="fill:#a05b2c;stroke:#010101;stroke-width:4;stroke-linecap:round"
           d="M 298.506,253.474 C 306.773,252.024 313.807,245.234 313.807,245.234" />
        <path
           id="path2512_6_"
           style="fill:#a05b2c;stroke:#010101;stroke-width:4;stroke-linecap:round"
           d="M 291.674,244.054 C 301.786,235.455 312.487,233.872 312.487,233.872" />
        <path
           id="path2514_12_"
           style="fill:#a05b2c;stroke:#010101;stroke-width:4;stroke-linecap:round"
           d="M 287.785,233.536 C 293.663,223.513 303.236,224.614 303.236,224.614" />
        <path
           id="path2514_11_"
           style="fill:#a05b2c;stroke:#010101;stroke-width:4;stroke-linecap:round"
           d="M 282.202,222.645 C 287.014,213.168 295.714,214.715 295.714,214.715" />
        <path
           id="path3349_1_"
           style="fill:#010101;fill-opacity:0.3137"
           d="M 333.159,235.119 C 332.416,240.264 330.341,250.612 327.324,255.745 C 319.881,268.407 312.792,266.926 304.476,262.45 C 315.355,262.442 326.697,243.055 333.159,235.119 z" />
      </g>
      <g
         id="g277">
        <g
           id="g279">
          <path
             id="path2479"
             style="fill:#794522;stroke:#010101;stroke-width:4;stroke-linecap:round;stroke-linejoin:round"
             d="M 147.308,27.978 C 132.343,27.978 120.192,40.128 120.192,55.095 C 120.192,64.78 125.28,73.27 132.925,78.066 C 124.842,92.353 120.192,108.842 120.192,126.419 C 120.192,180.748 164.259,224.857 218.59,224.857 C 272.919,224.857 317.029,180.748 317.029,126.419 C 317.029,108.842 312.378,92.353 304.296,78.066 C 311.924,73.266 317.029,64.767 317.029,55.095 C 317.029,40.128 304.877,27.978 289.913,27.978 C 280.24,27.978 271.783,33.082 266.984,40.711 C 252.689,32.617 236.178,27.978 218.589,27.978 C 201.004,27.978 184.526,32.621 170.235,40.711 C 165.438,33.082 156.981,27.978 147.308,27.978 z" />
          <path
             id="path2483"
             style="fill:#a05b2c;stroke:#010101;stroke-width:4;stroke-linecap:round;stroke-linejoin:round"
             d="M 290.239,39.481 C 284.801,39.481 280.051,42.346 277.342,46.628 C 285.66,52.23 292.82,59.383 298.417,67.703 C 302.685,64.991 305.529,60.2 305.529,54.772 C 305.529,46.334 298.677,39.481 290.239,39.481 z" />
          <path
             id="path2523"
             style="fill:#a05b2c;stroke:#010101;stroke-width:4;stroke-linecap:round;stroke-linejoin:round"
             d="M 147.241,39.481 C 152.679,39.481 157.429,42.346 160.138,46.628 C 151.821,52.23 144.66,59.383 139.064,67.703 C 134.795,64.991 131.951,60.2 131.951,54.772 C 131.951,46.334 138.803,39.481 147.241,39.481 z" />
          <path
             id="path3197"
             style="fill:#794522;stroke:#010101;stroke-width:4;stroke-linecap:round;stroke-linejoin:round"
             d="M 242.861,41.785 C 253.19,35.759 249.709,6.172 244.799,4.04 C 240.392,19.907 235.984,26.201 228.301,31.178 C 230.479,21.35 228.916,7.836 221.624,2 C 222.363,10.4 219.74,23.043 210.941,31.662 C 208.553,22.565 207.878,12.034 198.904,8.455 C 201.108,19.185 198.748,25.874 196.11,33.086" />
        </g>
        <path
           id="path285"
           style="fill:#a05b2c;stroke:#010101;stroke-width:4;stroke-linecap:round;stroke-linejoin:round"
           d="M 275.002,126.971 C 275.219,124.058 275.343,121.093 275.342,118.077 C 275.342,118.047 275.342,118.016 275.342,117.986 C 275.327,80.051 257.488,49.319 235.497,49.345 C 229.458,49.351 223.737,51.69 218.611,55.845 C 213.469,51.676 207.729,49.338 201.671,49.345 C 179.68,49.37 161.864,80.142 161.879,118.077 C 161.879,118.108 161.879,118.139 161.879,118.169 C 161.88,121.152 162.005,124.086 162.219,126.968 C 150.323,135.887 143.096,147.642 143.109,160.527 C 143.109,160.55 143.109,160.573 143.109,160.594 C 143.135,188.451 176.963,208.017 218.662,207.998 C 260.36,207.98 294.142,188.382 294.113,160.526 C 294.113,160.505 294.113,160.481 294.113,160.462 C 294.099,147.601 286.875,135.873 275.002,126.971 z" />
        <path
           id="path287"
           style="fill:none;stroke:#010101;stroke-width:4;stroke-linecap:round;stroke-linejoin:round"
           d="M 163.611,147.999 C 163.611,147.999 184.236,175.499 218.611,175.499 C 252.986,175.499 273.611,147.999 273.611,147.999" />
        <g
           id="g289">
          <path
             id="path2398"
             style="fill:#010101"
             d="M 234.98,122.833 C 232.687,126.807 228.479,128.673 225.583,127 C 222.687,125.327 222.198,120.751 224.492,116.778 C 226.785,112.805 230.993,110.94 233.889,112.612 C 236.786,114.285 237.274,118.861 234.98,122.833 z" />
          <path
             id="path2412"
             style="fill:#010101"
             d="M 202.242,122.833 C 204.535,126.807 208.743,128.673 211.639,127 C 214.535,125.327 215.024,120.751 212.73,116.778 C 210.437,112.805 206.229,110.94 203.333,112.612 C 200.436,114.285 199.948,118.861 202.242,122.833 z" />
        </g>
        <g
           id="g293">
          <g
             id="g295">
            <path
               id="path2387"
               style="fill:#ffffff;stroke:#010101;stroke-width:4;stroke-linecap:round;stroke-linejoin:round"
               d="M 215.259,87.838 C 215.267,99.339 205.95,108.669 194.448,108.676 C 182.948,108.684 173.617,99.366 173.61,87.866 C 173.61,87.856 173.61,87.846 173.61,87.838 C 173.602,76.337 182.92,67.007 194.421,66.999 C 205.922,66.992 215.251,76.309 215.259,87.81 C 215.259,87.819 215.259,87.829 215.259,87.838 z" />
            <path
               id="path2393"
               style="fill:#010101"
               d="M 207.122,90.232 C 207.124,93.801 204.232,96.696 200.663,96.699 C 197.094,96.7 194.199,93.81 194.196,90.241 C 194.196,90.239 194.196,90.236 194.196,90.232 C 194.193,86.663 197.085,83.767 200.654,83.765 C 204.224,83.762 207.12,86.654 207.122,90.223 C 207.122,90.226 207.122,90.229 207.122,90.232 z" />
          </g>
          <g
             id="g299">
            <path
               id="path2391"
               style="fill:#ffffff;stroke:#010101;stroke-width:4;stroke-linecap:round;stroke-linejoin:round"
               d="M 263.611,87.838 C 263.619,99.339 254.302,108.669 242.8,108.676 C 231.299,108.684 221.969,99.366 221.962,87.866 C 221.962,87.856 221.962,87.846 221.962,87.838 C 221.954,76.337 231.271,67.007 242.773,66.999 C 254.273,66.992 263.604,76.309 263.611,87.81 C 263.611,87.819 263.611,87.829 263.611,87.838 z" />
            <path
               id="path2395"
               style="fill:#010101"
               d="M 242.548,90.232 C 242.548,93.801 239.657,96.696 236.088,96.699 C 232.519,96.7 229.624,93.81 229.62,90.241 C 229.62,90.239 229.62,90.236 229.62,90.232 C 229.619,86.663 232.511,83.767 236.079,83.765 C 239.649,83.762 242.544,86.654 242.548,90.223 C 242.548,90.226 242.548,90.229 242.548,90.232 z" />
          </g>
        </g>
      </g>
      <g
         transform="translate(-70.306773,-134.47024)"
         id="g264">
        <path
           sodipodi:nodetypes="ccccsc"
           id="path266"
           style="fill:#794522;stroke:#010101;stroke-width:4;stroke-linecap:round"
           d="M 187.82878,224.46925 C 199.56678,212.08325 121.11886,307.87684 153.07886,341.73084 C 178.01986,368.15184 251.98322,256.13751 273.24232,237.94319 L 257.68606,223.86463 C 257.68606,223.86463 170.30073,296.69688 179.30073,287.69688 C 189.81423,277.18337 182.01843,284.29659 181.91857,275.39645" />
      </g>
      <g
         id="g303">
        <g
           id="g305">
          <path
             id="path307"
             style="fill:#a05b2c;stroke:#010101;stroke-width:4;stroke-linecap:round;stroke-linejoin:round"
             d="M 247.58,275.997 C 250.385,262.365 263.992,255.942 278.449,255.942 C 294.982,255.942 308.4,269.36 308.4,285.892 C 308.4,302.424 294.982,301.832 278.449,301.832 C 272.945,301.832 257.138,302.115 253.232,302.115 C 244.992,302.115 238.304,302.41 238.304,294.17 C 238.304,287.361 241.343,277.786 247.58,275.997 z" />
          <path
             id="path3349_4_"
             style="fill:#010101;fill-opacity:0.3137"
             d="M 301.908,266.749 C 304.449,271.149 308.912,280.268 308.912,285.713 C 308.912,299.145 300.047,301.261 287.857,301.587 C 299.966,296.539 299.908,275.999 301.908,266.749 z" />
          <path
             id="path2510_4_"
             style="fill:none;stroke:#010101;stroke-width:4;stroke-linecap:round"
             d="M 289.158,300.187 C 291.846,291.491 288.773,281.347 288.773,281.347" />
          <path
             id="path2512_4_"
             style="fill:none;stroke:#010101;stroke-width:4;stroke-linecap:round"
             d="M 276.687,301.118 C 273.392,287.108 277.158,275.999 277.158,275.999" />
          <path
             id="path2514_8_"
             style="fill:none;stroke:#010101;stroke-width:4;stroke-linecap:round"
             d="M 264.615,300.669 C 257.851,290.041 263.648,281.347 263.648,281.347" />
          <path
             id="path2514_7_"
             style="fill:none;stroke:#010101;stroke-width:4;stroke-linecap:round"
             d="M 251.343,300.669 C 244.579,291.339 250.376,283.708 250.376,283.708" />
          <path
             id="path3327_4_"
             style="fill:#010101;fill-opacity:0.3137"
             d="M 248.076,277.722 C 245.586,280.651 244.105,284.263 244.105,288.162 C 244.105,293.798 247.183,298.812 251.964,302.063 C 244.011,301.804 238.306,300.392 238.306,292.739 C 238.306,286.396 242.21,280.832 248.076,277.722 z" />
        </g>
        <g
           id="g315">
          <path
             id="path317"
             style="fill:#a05b2c;stroke:#010101;stroke-width:4;stroke-linecap:round;stroke-linejoin:round"
             d="M 189.13,275.997 C 186.325,262.365 172.717,255.942 158.26,255.942 C 141.728,255.942 128.31,269.36 128.31,285.892 C 128.31,302.424 141.728,301.832 158.26,301.832 C 163.765,301.832 179.571,302.115 183.478,302.115 C 191.718,302.115 198.405,302.41 198.405,294.17 C 198.404,287.361 195.366,277.786 189.13,275.997 z" />
          <path
             id="path2510_5_"
             style="fill:none;stroke:#010101;stroke-width:4;stroke-linecap:round"
             d="M 147.552,300.187 C 144.864,291.491 147.936,281.347 147.936,281.347" />
          <path
             id="path2512_5_"
             style="fill:none;stroke:#010101;stroke-width:4;stroke-linecap:round"
             d="M 160.022,301.118 C 163.316,287.108 159.551,275.999 159.551,275.999" />
          <path
             id="path2514_10_"
             style="fill:none;stroke:#010101;stroke-width:4;stroke-linecap:round"
             d="M 172.095,300.669 C 178.858,290.041 173.062,281.347 173.062,281.347" />
          <path
             id="path2514_9_"
             style="fill:none;stroke:#010101;stroke-width:4;stroke-linecap:round"
             d="M 185.366,300.669 C 192.129,291.339 186.333,283.708 186.333,283.708" />
          <path
             id="path3327_5_"
             style="fill:#010101;fill-opacity:0.3137"
             d="M 188.275,277.472 C 190.857,280.431 192.392,284.08 192.392,288.02 C 192.392,293.713 189.202,298.78 184.245,302.064 C 192.488,301.802 198.402,300.376 198.402,292.644 C 198.402,286.235 194.355,280.613 188.275,277.472 z" />
        </g>
      </g>
      <g
         transform="matrix(-1,0,0,1,507.59585,-134.70584)"
         id="g2621">
        <path
           sodipodi:nodetypes="ccccsc"
           id="path2623"
           style="fill:#794522;stroke:#010101;stroke-width:4;stroke-linecap:round"
           d="M 187.82878,224.46925 C 199.56678,212.08325 121.11886,307.87684 153.07886,341.73084 C 178.01986,368.15184 251.98322,256.13751 273.24232,237.94319 L 257.68606,223.86463 C 257.68606,223.86463 170.30073,296.69688 179.30073,287.69688 C 189.81423,277.18337 182.01843,284.29659 181.91857,275.39645" />
      </g>
      <g
         id="g2625"
         transform="matrix(-0.4573394,-0.7013498,-0.7908593,0.4055777,486.72896,79.707282)">
        <path
           d="M 135.92,209.176 C 123.552,205.742 112.556,214.209 106.474,226.072 C 99.52,239.643 104.887,256.3 118.454,263.254 C 132.022,270.209 137.182,258.948 144.137,245.381 C 146.451,240.862 153.334,228.01 154.979,224.802 C 158.445,218.04 161.5,212.676 154.737,209.209 C 149.149,206.345 140.012,204.809 135.92,209.176 z"
           style="fill:#a05b2c;stroke:#010101;stroke-width:4;stroke-linecap:round;stroke-linejoin:round"
           id="path2627" />
        <path
           d="M 138.28,253.474 C 130.013,252.024 122.979,245.234 122.979,245.234"
           style="fill:#a05b2c;stroke:#010101;stroke-width:4;stroke-linecap:round"
           id="path2629" />
        <path
           d="M 145.112,244.054 C 135,235.455 124.299,233.872 124.299,233.872"
           style="fill:#a05b2c;stroke:#010101;stroke-width:4;stroke-linecap:round"
           id="path2631" />
        <path
           d="M 149.001,233.536 C 143.123,223.513 133.55,224.614 133.55,224.614"
           style="fill:#a05b2c;stroke:#010101;stroke-width:4;stroke-linecap:round"
           id="path2633" />
        <path
           d="M 154.584,222.645 C 149.772,213.168 141.072,214.715 141.072,214.715"
           style="fill:#a05b2c;stroke:#010101;stroke-width:4;stroke-linecap:round"
           id="path2635" />
        <path
           d="M 103.627,235.119 C 104.37,240.264 106.445,250.612 109.462,255.745 C 116.905,268.407 123.994,266.926 132.31,262.45 C 121.431,262.442 110.089,243.055 103.627,235.119 z"
           style="fill:#010101;fill-opacity:0.3137"
           id="path2637" />
      </g>
      <g
         transform="matrix(0.4573394,-0.7013498,0.7908593,0.4055777,-48.309249,83.802816)"
         id="g2639">
        <path
           id="path2641"
           style="fill:#a05b2c;stroke:#010101;stroke-width:4;stroke-linecap:round;stroke-linejoin:round"
           d="M 135.92,209.176 C 123.552,205.742 112.556,214.209 106.474,226.072 C 99.52,239.643 104.887,256.3 118.454,263.254 C 132.022,270.209 137.182,258.948 144.137,245.381 C 146.451,240.862 153.334,228.01 154.979,224.802 C 158.445,218.04 161.5,212.676 154.737,209.209 C 149.149,206.345 140.012,204.809 135.92,209.176 z" />
        <path
           id="path2643"
           style="fill:#a05b2c;stroke:#010101;stroke-width:4;stroke-linecap:round"
           d="M 138.28,253.474 C 130.013,252.024 122.979,245.234 122.979,245.234" />
        <path
           id="path2645"
           style="fill:#a05b2c;stroke:#010101;stroke-width:4;stroke-linecap:round"
           d="M 145.112,244.054 C 135,235.455 124.299,233.872 124.299,233.872" />
        <path
           id="path2647"
           style="fill:#a05b2c;stroke:#010101;stroke-width:4;stroke-linecap:round"
           d="M 149.001,233.536 C 143.123,223.513 133.55,224.614 133.55,224.614" />
        <path
           id="path2649"
           style="fill:#a05b2c;stroke:#010101;stroke-width:4;stroke-linecap:round"
           d="M 154.584,222.645 C 149.772,213.168 141.072,214.715 141.072,214.715" />
        <path
           id="path2651"
           style="fill:#010101;fill-opacity:0.3137"
           d="M 103.627,235.119 C 104.37,240.264 106.445,250.612 109.462,255.745 C 116.905,268.407 123.994,266.926 132.31,262.45 C 121.431,262.442 110.089,243.055 103.627,235.119 z" />
      </g>
    </g>
    <g
       id="g4006"
       transform="translate(2.1295043,346.01831)">
      <g
         id="g4008">
        <path
           id="path4010"
           style="fill:#794522;stroke:#010101;stroke-width:4"
           d="M 139.722,220.167 C 93.054,175.966 62.902,226.923 32.278,209.499 C 6.445,189.332 25.778,158.832 40.362,146.124 C 68.033,122.013 31.764,131.783 28.901,132.589 C 20.288,135.012 -14.697,179.639 11.669,214.277 C 48.346,262.46 80.983,207.475 125.333,238.526 C 163.035,264.923 139,221.198 139.722,220.167 z" />
        <path
           id="path4012"
           style="fill:#010101;fill-opacity:0.3137"
           d="M 11.669,214.273 C 48.344,262.457 80.985,207.489 125.336,238.539 C 149.132,255.201 148.324,243.929 144.679,233.087 C 143.942,237.943 138.809,238.818 123.493,228.095 C 79.143,197.044 46.502,252.013 9.827,203.828 C 6.119,198.957 3.625,193.887 2.099,188.766 C 2.638,197.373 5.442,206.093 11.669,214.273 z" />
      </g>
      <g
         id="g4014">
        <path
           id="path4016"
           style="fill:#794522;stroke:#010101;stroke-width:4;stroke-linecap:round;stroke-linejoin:round"
           d="M 341.997,160.915 C 342.043,229.06 286.839,284.339 218.694,284.384 C 150.549,284.43 95.271,229.226 95.225,161.081 C 95.225,161.026 95.225,160.971 95.225,160.915 C 95.179,92.771 150.384,37.492 218.529,37.447 C 286.673,37.401 341.952,92.607 341.997,160.751 C 341.997,160.806 341.997,160.86 341.997,160.915 z" />
        <path
           id="path4018"
           style="fill:#010101;fill-opacity:0.3137"
           d="M 326.781,102.295 C 329.984,113.27 331.687,124.884 331.687,136.889 C 331.687,204.997 276.421,260.264 208.312,260.264 C 161.488,260.264 120.714,234.132 99.812,195.67 C 114.835,246.87 162.179,284.295 218.218,284.295 C 286.327,284.295 341.593,229.028 341.593,160.92 C 341.593,139.71 336.22,119.733 326.781,102.295 z" />
      </g>
      <g
         id="g4020">
        <g
           id="g4022">
          <path
             id="path4024"
             style="fill:#794522;stroke:#010101;stroke-width:4;stroke-linecap:round;stroke-linejoin:round"
             d="M 147.308,27.978 C 132.343,27.978 120.192,40.128 120.192,55.095 C 120.192,64.78 125.28,73.27 132.925,78.066 C 124.842,92.353 120.192,108.842 120.192,126.419 C 120.192,180.748 164.259,224.857 218.59,224.857 C 272.919,224.857 317.029,180.748 317.029,126.419 C 317.029,108.842 312.378,92.353 304.296,78.066 C 311.924,73.266 317.029,64.767 317.029,55.095 C 317.029,40.128 304.877,27.978 289.913,27.978 C 280.24,27.978 271.783,33.082 266.984,40.711 C 252.689,32.617 236.178,27.978 218.589,27.978 C 201.004,27.978 184.526,32.621 170.235,40.711 C 165.438,33.082 156.981,27.978 147.308,27.978 z" />
          <path
             id="path4026"
             style="fill:#a05b2c;stroke:#010101;stroke-width:4;stroke-linecap:round;stroke-linejoin:round"
             d="M 290.239,39.481 C 284.801,39.481 280.051,42.346 277.342,46.628 C 285.66,52.23 292.82,59.383 298.417,67.703 C 302.685,64.991 305.529,60.2 305.529,54.772 C 305.529,46.334 298.677,39.481 290.239,39.481 z" />
          <path
             id="path4028"
             style="fill:#a05b2c;stroke:#010101;stroke-width:4;stroke-linecap:round;stroke-linejoin:round"
             d="M 147.241,39.481 C 152.679,39.481 157.429,42.346 160.138,46.628 C 151.821,52.23 144.66,59.383 139.064,67.703 C 134.795,64.991 131.951,60.2 131.951,54.772 C 131.951,46.334 138.803,39.481 147.241,39.481 z" />
          <path
             id="path4030"
             style="fill:#794522;stroke:#010101;stroke-width:4;stroke-linecap:round;stroke-linejoin:round"
             d="M 242.861,41.785 C 253.19,35.759 249.709,6.172 244.799,4.04 C 240.392,19.907 235.984,26.201 228.301,31.178 C 230.479,21.35 228.916,7.836 221.624,2 C 222.363,10.4 219.74,23.043 210.941,31.662 C 208.553,22.565 207.878,12.034 198.904,8.455 C 201.108,19.185 198.748,25.874 196.11,33.086" />
        </g>
        <path
           id="path4032"
           style="fill:#a05b2c;stroke:#010101;stroke-width:4;stroke-linecap:round;stroke-linejoin:round"
           d="M 275.002,126.971 C 275.219,124.058 275.343,121.093 275.342,118.077 C 275.342,118.047 275.342,118.016 275.342,117.986 C 275.327,80.051 257.488,49.319 235.497,49.345 C 229.458,49.351 223.737,51.69 218.611,55.845 C 213.469,51.676 207.729,49.338 201.671,49.345 C 179.68,49.37 161.864,80.142 161.879,118.077 C 161.879,118.108 161.879,118.139 161.879,118.169 C 161.88,121.152 162.005,124.086 162.219,126.968 C 150.323,135.887 143.096,147.642 143.109,160.527 C 143.109,160.55 143.109,160.573 143.109,160.594 C 143.135,188.451 176.963,208.017 218.662,207.998 C 260.36,207.98 294.142,188.382 294.113,160.526 C 294.113,160.505 294.113,160.481 294.113,160.462 C 294.099,147.601 286.875,135.873 275.002,126.971 z" />
        <path
           id="path4034"
           style="fill:none;stroke:#010101;stroke-width:4;stroke-linecap:round;stroke-linejoin:round"
           d="M 163.611,147.999 C 163.611,147.999 184.236,175.499 218.611,175.499 C 252.986,175.499 273.611,147.999 273.611,147.999" />
        <g
           id="g4036">
          <path
             id="path4038"
             style="fill:#010101"
             d="M 234.98,122.833 C 232.687,126.807 228.479,128.673 225.583,127 C 222.687,125.327 222.198,120.751 224.492,116.778 C 226.785,112.805 230.993,110.94 233.889,112.612 C 236.786,114.285 237.274,118.861 234.98,122.833 z" />
          <path
             id="path4040"
             style="fill:#010101"
             d="M 202.242,122.833 C 204.535,126.807 208.743,128.673 211.639,127 C 214.535,125.327 215.024,120.751 212.73,116.778 C 210.437,112.805 206.229,110.94 203.333,112.612 C 200.436,114.285 199.948,118.861 202.242,122.833 z" />
        </g>
        <g
           id="g4042">
          <g
             id="g4044">
            <path
               id="path4046"
               style="fill:#ffffff;stroke:#010101;stroke-width:4;stroke-linecap:round;stroke-linejoin:round"
               d="M 215.259,87.838 C 215.267,99.339 205.95,108.669 194.448,108.676 C 182.948,108.684 173.617,99.366 173.61,87.866 C 173.61,87.856 173.61,87.846 173.61,87.838 C 173.602,76.337 182.92,67.007 194.421,66.999 C 205.922,66.992 215.251,76.309 215.259,87.81 C 215.259,87.819 215.259,87.829 215.259,87.838 z" />
            <path
               id="path4048"
               style="fill:#010101"
               d="M 207.122,90.232 C 207.124,93.801 204.232,96.696 200.663,96.699 C 197.094,96.7 194.199,93.81 194.196,90.241 C 194.196,90.239 194.196,90.236 194.196,90.232 C 194.193,86.663 197.085,83.767 200.654,83.765 C 204.224,83.762 207.12,86.654 207.122,90.223 C 207.122,90.226 207.122,90.229 207.122,90.232 z" />
          </g>
          <g
             id="g4050">
            <path
               id="path4052"
               style="fill:#ffffff;stroke:#010101;stroke-width:4;stroke-linecap:round;stroke-linejoin:round"
               d="M 263.611,87.838 C 263.619,99.339 254.302,108.669 242.8,108.676 C 231.299,108.684 221.969,99.366 221.962,87.866 C 221.962,87.856 221.962,87.846 221.962,87.838 C 221.954,76.337 231.271,67.007 242.773,66.999 C 254.273,66.992 263.604,76.309 263.611,87.81 C 263.611,87.819 263.611,87.829 263.611,87.838 z" />
            <path
               id="path4054"
               style="fill:#010101"
               d="M 242.548,90.232 C 242.548,93.801 239.657,96.696 236.088,96.699 C 232.519,96.7 229.624,93.81 229.62,90.241 C 229.62,90.239 229.62,90.236 229.62,90.232 C 229.619,86.663 232.511,83.767 236.079,83.765 C 239.649,83.762 242.544,86.654 242.548,90.223 C 242.548,90.226 242.548,90.229 242.548,90.232 z" />
          </g>
        </g>
      </g>
      <path
         d="M 120.25235,187.13514 C 131.99035,199.52214 45.35135,104.41114 77.31135,70.55614 C 102.25235,44.13514 124.31135,31.55614 133.31135,40.55614 L 127.31135,65.55614 C 127.31135,65.55614 99.31135,85.55614 108.31135,94.55614 C 117.31135,103.55614 127.31135,113.55614 127.31135,122.55614"
         style="fill:#794522;stroke:#010101;stroke-width:4;stroke-linecap:round"
         id="path250" />
      <path
         d="M 82.482711,124.48068 C 80.732711,125.48068 72.482711,116.23068 72.482711,88.480681 C 72.482711,75.048681 117.54371,41.056681 129.73271,40.730681 C 123.70171,43.245681 66.982711,80.730681 82.482711,124.48068 z"
         style="fill:#010101;fill-opacity:0.3137"
         id="path3349_2_" />
      <g
         transform="matrix(-1,0,0,-1,445.65966,273.72119)"
         id="g4058">
        <path
           id="path4060"
           style="fill:#a05b2c;stroke:#010101;stroke-width:4;stroke-linecap:round;stroke-linejoin:round"
           d="M 300.866,209.176 C 313.234,205.742 324.23,214.209 330.312,226.072 C 337.266,239.643 331.899,256.3 318.332,263.254 C 304.764,270.209 299.604,258.948 292.649,245.381 C 290.335,240.862 283.452,228.01 281.807,224.802 C 278.341,218.04 275.286,212.676 282.049,209.209 C 287.637,206.345 296.774,204.809 300.866,209.176 z" />
        <path
           id="path4062"
           style="fill:#a05b2c;stroke:#010101;stroke-width:4;stroke-linecap:round"
           d="M 298.506,253.474 C 306.773,252.024 313.807,245.234 313.807,245.234" />
        <path
           id="path4064"
           style="fill:#a05b2c;stroke:#010101;stroke-width:4;stroke-linecap:round"
           d="M 291.674,244.054 C 301.786,235.455 312.487,233.872 312.487,233.872" />
        <path
           id="path4066"
           style="fill:#a05b2c;stroke:#010101;stroke-width:4;stroke-linecap:round"
           d="M 287.785,233.536 C 293.663,223.513 303.236,224.614 303.236,224.614" />
        <path
           id="path4068"
           style="fill:#a05b2c;stroke:#010101;stroke-width:4;stroke-linecap:round"
           d="M 282.202,222.645 C 287.014,213.168 295.714,214.715 295.714,214.715" />
        <path
           id="path4070"
           style="fill:#010101;fill-opacity:0.3137"
           d="M 333.159,235.119 C 332.416,240.264 330.341,250.612 327.324,255.745 C 319.881,268.407 312.792,266.926 304.476,262.45 C 315.355,262.442 326.697,243.055 333.159,235.119 z" />
      </g>
      <g
         transform="matrix(-1,0,0,-1,434.05563,272.35601)"
         id="g4072">
        <path
           id="path4074"
           style="fill:#794522;stroke:#010101;stroke-width:4;stroke-linecap:round"
           d="M 117.522,89.999 C 129.26,77.613 42.621,172.724 74.581,206.578 C 99.522,232.999 121.581,245.578 130.581,236.578 L 124.581,211.578 C 124.581,211.578 96.581,191.578 105.581,182.578 C 114.581,173.578 124.581,163.578 124.581,154.578" />
      </g>
      <g
         transform="matrix(-1,0,0,-1,427.22973,279.18191)"
         id="g268">
        <path
           id="path270"
           style="fill:#a05b2c;stroke:#010101;stroke-width:4;stroke-linecap:round;stroke-linejoin:round"
           d="M 135.92,209.176 C 123.552,205.742 112.556,214.209 106.474,226.072 C 99.52,239.643 104.887,256.3 118.454,263.254 C 132.022,270.209 137.182,258.948 144.137,245.381 C 146.451,240.862 153.334,228.01 154.979,224.802 C 158.445,218.04 161.5,212.676 154.737,209.209 C 149.149,206.345 140.012,204.809 135.92,209.176 z" />
        <path
           id="path2510_1_"
           style="fill:#a05b2c;stroke:#010101;stroke-width:4;stroke-linecap:round"
           d="M 138.28,253.474 C 130.013,252.024 122.979,245.234 122.979,245.234" />
        <path
           id="path2512_1_"
           style="fill:#a05b2c;stroke:#010101;stroke-width:4;stroke-linecap:round"
           d="M 145.112,244.054 C 135,235.455 124.299,233.872 124.299,233.872" />
        <path
           id="path2514_2_"
           style="fill:#a05b2c;stroke:#010101;stroke-width:4;stroke-linecap:round"
           d="M 149.001,233.536 C 143.123,223.513 133.55,224.614 133.55,224.614" />
        <path
           id="path2514_1_"
           style="fill:#a05b2c;stroke:#010101;stroke-width:4;stroke-linecap:round"
           d="M 154.584,222.645 C 149.772,213.168 141.072,214.715 141.072,214.715" />
        <path
           id="path3349_3_"
           style="fill:#010101;fill-opacity:0.3137"
           d="M 103.627,235.119 C 104.37,240.264 106.445,250.612 109.462,255.745 C 116.905,268.407 123.994,266.926 132.31,262.45 C 121.431,262.442 110.089,243.055 103.627,235.119 z" />
      </g>
      <g
         id="g4083">
        <g
           id="g4085">
          <path
             id="path4087"
             style="fill:#a05b2c;stroke:#010101;stroke-width:4;stroke-linecap:round;stroke-linejoin:round"
             d="M 247.58,275.997 C 250.385,262.365 263.992,255.942 278.449,255.942 C 294.982,255.942 308.4,269.36 308.4,285.892 C 308.4,302.424 294.982,301.832 278.449,301.832 C 272.945,301.832 257.138,302.115 253.232,302.115 C 244.992,302.115 238.304,302.41 238.304,294.17 C 238.304,287.361 241.343,277.786 247.58,275.997 z" />
          <path
             id="path4089"
             style="fill:#010101;fill-opacity:0.3137"
             d="M 301.908,266.749 C 304.449,271.149 308.912,280.268 308.912,285.713 C 308.912,299.145 300.047,301.261 287.857,301.587 C 299.966,296.539 299.908,275.999 301.908,266.749 z" />
          <path
             id="path4091"
             style="fill:none;stroke:#010101;stroke-width:4;stroke-linecap:round"
             d="M 289.158,300.187 C 291.846,291.491 288.773,281.347 288.773,281.347" />
          <path
             id="path4093"
             style="fill:none;stroke:#010101;stroke-width:4;stroke-linecap:round"
             d="M 276.687,301.118 C 273.392,287.108 277.158,275.999 277.158,275.999" />
          <path
             id="path4095"
             style="fill:none;stroke:#010101;stroke-width:4;stroke-linecap:round"
             d="M 264.615,300.669 C 257.851,290.041 263.648,281.347 263.648,281.347" />
          <path
             id="path4097"
             style="fill:none;stroke:#010101;stroke-width:4;stroke-linecap:round"
             d="M 251.343,300.669 C 244.579,291.339 250.376,283.708 250.376,283.708" />
          <path
             id="path4099"
             style="fill:#010101;fill-opacity:0.3137"
             d="M 248.076,277.722 C 245.586,280.651 244.105,284.263 244.105,288.162 C 244.105,293.798 247.183,298.812 251.964,302.063 C 244.011,301.804 238.306,300.392 238.306,292.739 C 238.306,286.396 242.21,280.832 248.076,277.722 z" />
        </g>
        <g
           id="g4101">
          <path
             id="path4103"
             style="fill:#a05b2c;stroke:#010101;stroke-width:4;stroke-linecap:round;stroke-linejoin:round"
             d="M 189.13,275.997 C 186.325,262.365 172.717,255.942 158.26,255.942 C 141.728,255.942 128.31,269.36 128.31,285.892 C 128.31,302.424 141.728,301.832 158.26,301.832 C 163.765,301.832 179.571,302.115 183.478,302.115 C 191.718,302.115 198.405,302.41 198.405,294.17 C 198.404,287.361 195.366,277.786 189.13,275.997 z" />
          <path
             id="path4105"
             style="fill:none;stroke:#010101;stroke-width:4;stroke-linecap:round"
             d="M 147.552,300.187 C 144.864,291.491 147.936,281.347 147.936,281.347" />
          <path
             id="path4107"
             style="fill:none;stroke:#010101;stroke-width:4;stroke-linecap:round"
             d="M 160.022,301.118 C 163.316,287.108 159.551,275.999 159.551,275.999" />
          <path
             id="path4109"
             style="fill:none;stroke:#010101;stroke-width:4;stroke-linecap:round"
             d="M 172.095,300.669 C 178.858,290.041 173.062,281.347 173.062,281.347" />
          <path
             id="path4111"
             style="fill:none;stroke:#010101;stroke-width:4;stroke-linecap:round"
             d="M 185.366,300.669 C 192.129,291.339 186.333,283.708 186.333,283.708" />
          <path
             id="path4113"
             style="fill:#010101;fill-opacity:0.3137"
             d="M 188.275,277.472 C 190.857,280.431 192.392,284.08 192.392,288.02 C 192.392,293.713 189.202,298.78 184.245,302.064 C 192.488,301.802 198.402,300.376 198.402,292.644 C 198.402,286.235 194.355,280.613 188.275,277.472 z" />
        </g>
      </g>
    </g>
    <g
       transform="translate(1.3306614,706.0183)"
       id="g4512">
      <g
         id="g4514">
        <path
           id="path4516"
           style="fill:#794522;stroke:#010101;stroke-width:4"
           d="M 139.722,220.167 C 93.054,175.966 62.902,226.923 32.278,209.499 C 6.445,189.332 25.778,158.832 40.362,146.124 C 68.033,122.013 31.764,131.783 28.901,132.589 C 20.288,135.012 -14.697,179.639 11.669,214.277 C 48.346,262.46 80.983,207.475 125.333,238.526 C 163.035,264.923 139,221.198 139.722,220.167 z" />
        <path
           id="path4518"
           style="fill:#010101;fill-opacity:0.3137"
           d="M 11.669,214.273 C 48.344,262.457 80.985,207.489 125.336,238.539 C 149.132,255.201 148.324,243.929 144.679,233.087 C 143.942,237.943 138.809,238.818 123.493,228.095 C 79.143,197.044 46.502,252.013 9.827,203.828 C 6.119,198.957 3.625,193.887 2.099,188.766 C 2.638,197.373 5.442,206.093 11.669,214.273 z" />
      </g>
      <g
         id="g4520">
        <path
           id="path4522"
           style="fill:#794522;stroke:#010101;stroke-width:4;stroke-linecap:round;stroke-linejoin:round"
           d="M 341.997,160.915 C 342.043,229.06 286.839,284.339 218.694,284.384 C 150.549,284.43 95.271,229.226 95.225,161.081 C 95.225,161.026 95.225,160.971 95.225,160.915 C 95.179,92.771 150.384,37.492 218.529,37.447 C 286.673,37.401 341.952,92.607 341.997,160.751 C 341.997,160.806 341.997,160.86 341.997,160.915 z" />
        <path
           id="path4524"
           style="fill:#010101;fill-opacity:0.3137"
           d="M 326.781,102.295 C 329.984,113.27 331.687,124.884 331.687,136.889 C 331.687,204.997 276.421,260.264 208.312,260.264 C 161.488,260.264 120.714,234.132 99.812,195.67 C 114.835,246.87 162.179,284.295 218.218,284.295 C 286.327,284.295 341.593,229.028 341.593,160.92 C 341.593,139.71 336.22,119.733 326.781,102.295 z" />
      </g>
      <path
         d="M 327.06058,118.83199 C 319.75725,95.603231 372.19222,270.34582 325.29747,267.48119 C 288.7012,265.24673 260.64556,253.63089 254.84694,236.26506 L 271.10193,220.14488 C 271.10193,220.14488 308.32547,231.28562 302.52684,213.91979 C 296.72822,196.55395 290.28529,177.25859 293.88217,169.21741"
         style="fill:#794522;stroke:#010101;stroke-width:4.64206505;stroke-linecap:round"
         id="path4526" />
      <path
         d="M 342.66352,220.43169 C 344.89007,221.35136 349.80583,238.1635 338.71546,262.95714 C 333.34732,274.95816 272.72108,258.64233 259.86614,246.30491 C 267.16731,250.3064 341.35984,275.57989 342.66352,220.43169 z"
         style="fill:#010101;fill-opacity:0.3137"
         id="path4528" />
      <path
         d="M 111.43717,110.70268 C 118.7405,87.473926 66.305531,262.2165 113.20028,259.35187 C 149.79655,257.11741 177.8522,245.50157 183.65082,228.13574 L 167.39582,212.01556 C 167.39582,212.01556 130.17228,223.1563 135.97091,205.79047 C 141.76953,188.42463 148.21246,169.12927 144.61558,161.08809"
         style="fill:#794522;stroke:#010101;stroke-width:4.64206505;stroke-linecap:round"
         id="path2593" />
      <g
         id="g4531">
        <path
           d="M 147.308,27.978 C 132.343,27.978 120.192,40.128 120.192,55.095 C 120.192,64.78 125.28,73.27 132.925,78.066 C 124.842,92.353 120.192,108.842 120.192,126.419 C 120.192,180.748 164.259,224.857 218.59,224.857 C 272.919,224.857 317.029,180.748 317.029,126.419 C 317.029,108.842 312.378,92.353 304.296,78.066 C 311.924,73.266 317.029,64.767 317.029,55.095 C 317.029,40.128 304.877,27.978 289.913,27.978 C 280.24,27.978 271.783,33.082 266.984,40.711 C 252.689,32.617 236.178,27.978 218.589,27.978 C 201.004,27.978 184.526,32.621 170.235,40.711 C 165.438,33.082 156.981,27.978 147.308,27.978 z"
           style="fill:#794522;stroke:#010101;stroke-width:4;stroke-linecap:round;stroke-linejoin:round"
           id="path4533" />
        <path
           d="M 290.239,39.481 C 284.801,39.481 280.051,42.346 277.342,46.628 C 285.66,52.23 292.82,59.383 298.417,67.703 C 302.685,64.991 305.529,60.2 305.529,54.772 C 305.529,46.334 298.677,39.481 290.239,39.481 z"
           style="fill:#a05b2c;stroke:#010101;stroke-width:4;stroke-linecap:round;stroke-linejoin:round"
           id="path4535" />
        <path
           d="M 147.241,39.481 C 152.679,39.481 157.429,42.346 160.138,46.628 C 151.821,52.23 144.66,59.383 139.064,67.703 C 134.795,64.991 131.951,60.2 131.951,54.772 C 131.951,46.334 138.803,39.481 147.241,39.481 z"
           style="fill:#a05b2c;stroke:#010101;stroke-width:4;stroke-linecap:round;stroke-linejoin:round"
           id="path4537" />
        <path
           d="M 242.861,41.785 C 253.19,35.759 249.709,6.172 244.799,4.04 C 240.392,19.907 235.984,26.201 228.301,31.178 C 230.479,21.35 228.916,7.836 221.624,2 C 222.363,10.4 219.74,23.043 210.941,31.662 C 208.553,22.565 207.878,12.034 198.904,8.455 C 201.108,19.185 198.748,25.874 196.11,33.086"
           style="fill:#794522;stroke:#010101;stroke-width:4;stroke-linecap:round;stroke-linejoin:round"
           id="path4539" />
      </g>
      <path
         d="M 275.002,126.971 C 275.219,124.058 275.343,121.093 275.342,118.077 C 275.342,118.047 275.342,118.016 275.342,117.986 C 275.327,80.051 257.488,49.319 235.497,49.345 C 229.458,49.351 223.737,51.69 218.611,55.845 C 213.469,51.676 207.729,49.338 201.671,49.345 C 179.68,49.37 161.864,80.142 161.879,118.077 C 161.879,118.108 161.879,118.139 161.879,118.169 C 161.88,121.152 162.005,124.086 162.219,126.968 C 150.323,135.887 143.096,147.642 143.109,160.527 C 143.109,160.55 143.109,160.573 143.109,160.594 C 143.135,188.451 176.963,208.017 218.662,207.998 C 260.36,207.98 294.142,188.382 294.113,160.526 C 294.113,160.505 294.113,160.481 294.113,160.462 C 294.099,147.601 286.875,135.873 275.002,126.971 z"
         style="fill:#a05b2c;stroke:#010101;stroke-width:4;stroke-linecap:round;stroke-linejoin:round"
         id="path4541" />
      <path
         d="M 182.32427,175.21566 C 182.32427,175.21566 195.16388,146.91716 216.56323,146.91716 C 237.96258,146.91716 250.80218,175.21566 250.80218,175.21566"
         style="fill:none;stroke:#010101;stroke-width:3.20150518;stroke-linecap:round;stroke-linejoin:round"
         id="path4543" />
      <g
         id="g4545">
        <path
           d="M 234.98,122.833 C 232.687,126.807 228.479,128.673 225.583,127 C 222.687,125.327 222.198,120.751 224.492,116.778 C 226.785,112.805 230.993,110.94 233.889,112.612 C 236.786,114.285 237.274,118.861 234.98,122.833 z"
           style="fill:#010101"
           id="path4547" />
        <path
           d="M 202.242,122.833 C 204.535,126.807 208.743,128.673 211.639,127 C 214.535,125.327 215.024,120.751 212.73,116.778 C 210.437,112.805 206.229,110.94 203.333,112.612 C 200.436,114.285 199.948,118.861 202.242,122.833 z"
           style="fill:#010101"
           id="path4549" />
      </g>
      <g
         id="g4551">
        <g
           id="g4553">
          <path
             d="M 215.259,87.838 C 215.267,99.339 205.95,108.669 194.448,108.676 C 182.948,108.684 173.617,99.366 173.61,87.866 C 173.61,87.856 173.61,87.846 173.61,87.838 C 173.602,76.337 182.92,67.007 194.421,66.999 C 205.922,66.992 215.251,76.309 215.259,87.81 C 215.259,87.819 215.259,87.829 215.259,87.838 z"
             style="fill:#ffffff;stroke:#010101;stroke-width:4;stroke-linecap:round;stroke-linejoin:round"
             id="path4555" />
          <path
             d="M 207.122,90.232 C 207.124,93.801 204.232,96.696 200.663,96.699 C 197.094,96.7 194.199,93.81 194.196,90.241 C 194.196,90.239 194.196,90.236 194.196,90.232 C 194.193,86.663 197.085,83.767 200.654,83.765 C 204.224,83.762 207.12,86.654 207.122,90.223 C 207.122,90.226 207.122,90.229 207.122,90.232 z"
             style="fill:#010101"
             id="path4557" />
        </g>
        <g
           id="g4559">
          <path
             d="M 263.611,87.838 C 263.619,99.339 254.302,108.669 242.8,108.676 C 231.299,108.684 221.969,99.366 221.962,87.866 C 221.962,87.856 221.962,87.846 221.962,87.838 C 221.954,76.337 231.271,67.007 242.773,66.999 C 254.273,66.992 263.604,76.309 263.611,87.81 C 263.611,87.819 263.611,87.829 263.611,87.838 z"
             style="fill:#ffffff;stroke:#010101;stroke-width:4;stroke-linecap:round;stroke-linejoin:round"
             id="path4561" />
          <path
             d="M 242.548,90.232 C 242.548,93.801 239.657,96.696 236.088,96.699 C 232.519,96.7 229.624,93.81 229.62,90.241 C 229.62,90.239 229.62,90.236 229.62,90.232 C 229.619,86.663 232.511,83.767 236.079,83.765 C 239.649,83.762 242.544,86.654 242.548,90.223 C 242.548,90.226 242.548,90.229 242.548,90.232 z"
             style="fill:#010101"
             id="path4563" />
        </g>
      </g>
      <g
         transform="matrix(0.8994983,1.3814805,-0.8599383,0.4992829,167.10407,-347.88277)"
         id="g4565">
        <path
           id="path4567"
           style="fill:#a05b2c;stroke:#010101;stroke-width:4;stroke-linecap:round;stroke-linejoin:round"
           d="M 300.866,209.176 C 313.234,205.742 324.23,214.209 330.312,226.072 C 337.266,239.643 331.899,256.3 318.332,263.254 C 304.764,270.209 299.604,258.948 292.649,245.381 C 290.335,240.862 283.452,228.01 281.807,224.802 C 278.341,218.04 275.286,212.676 282.049,209.209 C 287.637,206.345 296.774,204.809 300.866,209.176 z" />
        <path
           id="path4569"
           style="fill:#a05b2c;stroke:#010101;stroke-width:4;stroke-linecap:round"
           d="M 298.506,253.474 C 306.773,252.024 313.807,245.234 313.807,245.234" />
        <path
           id="path4571"
           style="fill:#a05b2c;stroke:#010101;stroke-width:4;stroke-linecap:round"
           d="M 291.674,244.054 C 301.786,235.455 312.487,233.872 312.487,233.872" />
        <path
           id="path4573"
           style="fill:#a05b2c;stroke:#010101;stroke-width:4;stroke-linecap:round"
           d="M 287.785,233.536 C 293.663,223.513 303.236,224.614 303.236,224.614" />
        <path
           id="path4575"
           style="fill:#a05b2c;stroke:#010101;stroke-width:4;stroke-linecap:round"
           d="M 282.202,222.645 C 287.014,213.168 295.714,214.715 295.714,214.715" />
        <path
           id="path4577"
           style="fill:#010101;fill-opacity:0.3137"
           d="M 333.159,235.119 C 332.416,240.264 330.341,250.612 327.324,255.745 C 319.881,268.407 312.792,266.926 304.476,262.45 C 315.355,262.442 326.697,243.055 333.159,235.119 z" />
      </g>
      <g
         id="g4579">
        <g
           id="g4581">
          <path
             id="path4583"
             style="fill:#a05b2c;stroke:#010101;stroke-width:4;stroke-linecap:round;stroke-linejoin:round"
             d="M 247.58,275.997 C 250.385,262.365 263.992,255.942 278.449,255.942 C 294.982,255.942 308.4,269.36 308.4,285.892 C 308.4,302.424 294.982,301.832 278.449,301.832 C 272.945,301.832 257.138,302.115 253.232,302.115 C 244.992,302.115 238.304,302.41 238.304,294.17 C 238.304,287.361 241.343,277.786 247.58,275.997 z" />
          <path
             id="path4585"
             style="fill:#010101;fill-opacity:0.3137"
             d="M 301.908,266.749 C 304.449,271.149 308.912,280.268 308.912,285.713 C 308.912,299.145 300.047,301.261 287.857,301.587 C 299.966,296.539 299.908,275.999 301.908,266.749 z" />
          <path
             id="path4587"
             style="fill:none;stroke:#010101;stroke-width:4;stroke-linecap:round"
             d="M 289.158,300.187 C 291.846,291.491 288.773,281.347 288.773,281.347" />
          <path
             id="path4589"
             style="fill:none;stroke:#010101;stroke-width:4;stroke-linecap:round"
             d="M 276.687,301.118 C 273.392,287.108 277.158,275.999 277.158,275.999" />
          <path
             id="path4591"
             style="fill:none;stroke:#010101;stroke-width:4;stroke-linecap:round"
             d="M 264.615,300.669 C 257.851,290.041 263.648,281.347 263.648,281.347" />
          <path
             id="path4593"
             style="fill:none;stroke:#010101;stroke-width:4;stroke-linecap:round"
             d="M 251.343,300.669 C 244.579,291.339 250.376,283.708 250.376,283.708" />
          <path
             id="path4595"
             style="fill:#010101;fill-opacity:0.3137"
             d="M 248.076,277.722 C 245.586,280.651 244.105,284.263 244.105,288.162 C 244.105,293.798 247.183,298.812 251.964,302.063 C 244.011,301.804 238.306,300.392 238.306,292.739 C 238.306,286.396 242.21,280.832 248.076,277.722 z" />
        </g>
        <g
           id="g4597">
          <path
             id="path4599"
             style="fill:#a05b2c;stroke:#010101;stroke-width:4;stroke-linecap:round;stroke-linejoin:round"
             d="M 189.13,275.997 C 186.325,262.365 172.717,255.942 158.26,255.942 C 141.728,255.942 128.31,269.36 128.31,285.892 C 128.31,302.424 141.728,301.832 158.26,301.832 C 163.765,301.832 179.571,302.115 183.478,302.115 C 191.718,302.115 198.405,302.41 198.405,294.17 C 198.404,287.361 195.366,277.786 189.13,275.997 z" />
          <path
             id="path4601"
             style="fill:none;stroke:#010101;stroke-width:4;stroke-linecap:round"
             d="M 147.552,300.187 C 144.864,291.491 147.936,281.347 147.936,281.347" />
          <path
             id="path4603"
             style="fill:none;stroke:#010101;stroke-width:4;stroke-linecap:round"
             d="M 160.022,301.118 C 163.316,287.108 159.551,275.999 159.551,275.999" />
          <path
             id="path4605"
             style="fill:none;stroke:#010101;stroke-width:4;stroke-linecap:round"
             d="M 172.095,300.669 C 178.858,290.041 173.062,281.347 173.062,281.347" />
          <path
             id="path4607"
             style="fill:none;stroke:#010101;stroke-width:4;stroke-linecap:round"
             d="M 185.366,300.669 C 192.129,291.339 186.333,283.708 186.333,283.708" />
          <path
             id="path4609"
             style="fill:#010101;fill-opacity:0.3137"
             d="M 188.275,277.472 C 190.857,280.431 192.392,284.08 192.392,288.02 C 192.392,293.713 189.202,298.78 184.245,302.064 C 192.488,301.802 198.402,300.376 198.402,292.644 C 198.402,286.235 194.355,280.613 188.275,277.472 z" />
        </g>
      </g>
      <g
         transform="matrix(-0.8994983,1.3814805,0.8599383,0.4992829,269.89786,-352.47093)"
         id="g2595">
        <path
           id="path2597"
           style="fill:#a05b2c;stroke:#010101;stroke-width:4;stroke-linecap:round;stroke-linejoin:round"
           d="M 300.866,209.176 C 313.234,205.742 324.23,214.209 330.312,226.072 C 337.266,239.643 331.899,256.3 318.332,263.254 C 304.764,270.209 299.604,258.948 292.649,245.381 C 290.335,240.862 283.452,228.01 281.807,224.802 C 278.341,218.04 275.286,212.676 282.049,209.209 C 287.637,206.345 296.774,204.809 300.866,209.176 z" />
        <path
           id="path2599"
           style="fill:#a05b2c;stroke:#010101;stroke-width:4;stroke-linecap:round"
           d="M 298.506,253.474 C 306.773,252.024 313.807,245.234 313.807,245.234" />
        <path
           id="path2601"
           style="fill:#a05b2c;stroke:#010101;stroke-width:4;stroke-linecap:round"
           d="M 291.674,244.054 C 301.786,235.455 312.487,233.872 312.487,233.872" />
        <path
           id="path2603"
           style="fill:#a05b2c;stroke:#010101;stroke-width:4;stroke-linecap:round"
           d="M 287.785,233.536 C 293.663,223.513 303.236,224.614 303.236,224.614" />
        <path
           id="path2605"
           style="fill:#a05b2c;stroke:#010101;stroke-width:4;stroke-linecap:round"
           d="M 282.202,222.645 C 287.014,213.168 295.714,214.715 295.714,214.715" />
        <path
           id="path2607"
           style="fill:#010101;fill-opacity:0.3137"
           d="M 333.159,235.119 C 332.416,240.264 330.341,250.612 327.324,255.745 C 319.881,268.407 312.792,266.926 304.476,262.45 C 315.355,262.442 326.697,243.055 333.159,235.119 z" />
      </g>
    </g>
  </g>
</svg>
